<svg id="visual" viewBox="0 0 900 600" width="900" height="600" xmlns="http://www.w3.org/2000/svg" xmlns:xlink="http://www.w3.org/1999/xlink" version="1.1"><path d="M0 235L37.5 226C75 217 150 199 225 187C300 175 375 169 450 182C525 195 600 227 675 217C750 207 825 155 862.5 129L900 103L900 0L862.5 0C825 0 750 0 675 0C600 0 525 0 450 0C375 0 300 0 225 0C150 0 75 0 37.5 0L0 0Z" fill="#b5c695"></path><path d="M0 421L37.5 409C75 397 150 373 225 358C300 343 375 337 450 339C525 341 600 351 675 347C750 343 825 325 862.5 316L900 307L900 101L862.5 127C825 153 750 205 675 215C600 225 525 193 450 180C375 167 300 173 225 185C150 197 75 215 37.5 224L0 233Z" fill="#95ad67"></path><path d="M0 601L37.5 601C75 601 150 601 225 601C300 601 375 601 450 601C525 601 600 601 675 601C750 601 825 601 862.5 601L900 601L900 305L862.5 314C825 323 750 341 675 345C600 349 525 339 450 337C375 335 300 341 225 356C150 371 75 395 37.5 407L0 419Z" fill="#6d7f4b"></path></svg>